<svg xmlns="http://www.w3.org/2000/svg" version="1.1" xmlns:xlink="http://www.w3.org/1999/xlink" xmlns:svgjs="http://svgjs.dev/svgjs" width="1500" height="1456" viewBox="0 0 1500 1456"><g transform="matrix(1,0,0,1,-1.130439665703193,0.1553398058251787)"><svg viewBox="0 0 309 300" data-background-color="#ffffff" preserveAspectRatio="xMidYMid meet" height="1456" width="1500" xmlns="http://www.w3.org/2000/svg" xmlns:xlink="http://www.w3.org/1999/xlink"><g id="tight-bounds" transform="matrix(1,0,0,1,0.23287057113486753,10)"><svg viewBox="0 0 308.53425885773026 280" height="280" width="308.53425885773026"><g><svg viewBox="0 0 308.53425885773026 280" height="280" width="308.53425885773026"><g><svg viewBox="0 0 308.53425885773026 280" height="280" width="308.53425885773026"><g id="textblocktransform"><svg viewBox="0 0 308.53425885773026 280" height="280" width="308.53425885773026" id="textblock"><g><svg viewBox="0 0 308.53425885773026 280" height="280" width="308.53425885773026"><g transform="matrix(1,0,0,1,0,-14.267129428865132)"><svg viewBox="0 0 308.53425885773026 308.53425885773026" height="308.53425885773026" width="308.53425885773026"><g id="icon-0"><circle r="1.5e+2" cx="154.26712942886513" cy="154.26712942886513" fill="#ba3b0a" data-fill-palette-color="accent"></circle><svg xmlns="http://www.w3.org/2000/svg" xmlns:xlink="http://www.w3.org/1999/xlink" version="1.1" x="46.28013882865954" y="46.28013882865954" viewBox="0 0 100 100" style="enable-background:new 0 0 100 100;" xml:space="preserve" height="215.97398120041117" width="215.97398120041117" class="icon-jxe-0" data-fill-palette-color="quaternary" id="jxe-0"><g fill="#ffffff" data-fill-palette-color="quaternary"><path d="M93.545 45.869A81 81 0 0 0 100 43.111C99.506 38.937 98.296 34.874 96.771 30.968 94.46 31.135 92.079 31.438 89.773 31.809A44 44 0 0 0 85.632 24.642 90 90 0 0 0 89.841 19.011 48.5 48.5 0 0 0 80.987 10.157 91 91 0 0 0 75.365 14.358 43.3 43.3 0 0 0 68.189 10.21C68.56 7.908 68.867 5.532 69.029 3.227 65.124 1.704 61.058 0.497 56.891 0 55.873 2.143 54.956 4.244 54.125 6.464A43.6 43.6 0 0 0 45.868 6.456 80 80 0 0 0 43.104 0C38.94 0.497 34.871 1.704 30.964 3.223 31.131 5.535 31.436 7.918 31.808 10.227A44 44 0 0 0 24.644 14.367 90 90 0 0 0 19.011 10.157 48.6 48.6 0 0 0 10.154 19.011 90 90 0 0 0 14.359 24.635 43.6 43.6 0 0 0 10.211 31.807C7.907 31.437 5.531 31.135 3.225 30.968 1.704 34.874 0.491 38.938 0 43.111 2.144 44.13 4.244 45.045 6.464 45.872A43.6 43.6 0 0 0 6.455 54.132 80 80 0 0 0 0 56.891C0.491 61.062 1.704 65.125 3.224 69.034 5.535 68.868 7.917 68.561 10.224 68.188A44 44 0 0 0 14.366 75.356 87 87 0 0 0 10.153 80.99 48.8 48.8 0 0 0 19.01 89.846 90 90 0 0 0 24.631 85.64 43.3 43.3 0 0 0 31.806 89.788C31.434 92.089 31.131 94.467 30.964 96.777 34.871 98.295 38.94 99.506 43.104 100A82 82 0 0 0 45.871 93.536 43.6 43.6 0 0 0 54.128 93.545 83 83 0 0 0 56.891 100C61.058 99.507 65.124 98.295 69.03 96.777 68.867 94.463 68.561 92.08 68.188 89.775A44 44 0 0 0 75.358 85.632 90 90 0 0 0 80.988 89.845 48.8 48.8 0 0 0 89.842 80.989 87 87 0 0 0 85.641 75.366 43.4 43.4 0 0 0 89.791 68.189C92.09 68.566 94.467 68.867 96.771 69.033 98.295 65.125 99.505 61.061 100 56.89A81 81 0 0 0 93.536 54.127 43.7 43.7 0 0 0 93.545 45.869M68.465 77.387V63.232C68.465 56.028 61.483 50.19 54.279 50.19L50.253 55.108 54.281 73.735 49.783 78.328 45.286 73.735 49.313 55.108 45.286 50.187C38.082 50.187 31.101 56.027 31.101 63.231V76.926C22.663 70.956 17.153 61.121 17.153 49.999 17.153 31.795 31.91 17.037 50.115 17.037 68.319 17.037 83.076 31.795 83.076 49.999 83.078 61.413 77.278 71.47 68.465 77.387M60.814 37.584C60.814 43.677 55.875 48.615 49.782 48.615 43.69 48.615 38.75 43.677 38.75 37.584S43.689 26.553 49.782 26.553 60.814 31.491 60.814 37.584" fill="#ffffff" data-fill-palette-color="quaternary"></path></g></svg></g></svg></g><g id="text-0"><path d="M141.523 34.809l0.118 25.373c0.011 2.296-0.368 4.206-1.136 5.731-0.768 1.525-1.754 2.73-2.958 3.617-1.204 0.88-2.651 1.654-4.339 2.323v0l-1.791-4.736c1.035-0.517 1.797-1.071 2.284-1.663 0.481-0.592 0.797-1.297 0.95-2.116 0.16-0.818 0.236-1.945 0.229-3.38v0l-0.116-25.118z" fill="#ffa458" data-fill-palette-color="primary"></path><path d="M0 188.307c0-1.889 1.532-3.421 3.421-3.421 1.889 0 3.421 1.532 3.421 3.421 0 1.889-1.532 3.421-3.421 3.421-1.889 0-3.421-1.532-3.421-3.421z" fill="#ffa458" data-fill-palette-color="primary"></path><path d="M268.666 188.307c0-1.889 1.532-3.421 3.421-3.421 1.889 0 3.421 1.532 3.421 3.421 0 1.889-1.532 3.421-3.421 3.421-1.889 0-3.421-1.532-3.421-3.421z" fill="#ffa458" data-fill-palette-color="primary"></path></g><g id="text-1"><path d="M248.128 224.521l23.844 8.677c2.157 0.785 3.818 1.802 4.983 3.05 1.164 1.248 1.954 2.591 2.369 4.027 0.408 1.434 0.634 3.059 0.676 4.875v0l-5.063 0.041c-0.126-1.15-0.382-2.056-0.769-2.719-0.389-0.656-0.941-1.197-1.656-1.624-0.712-0.433-1.743-0.895-3.092-1.386v0l-23.603-8.589z" fill="#ffa458" data-fill-palette-color="primary"></path></g></svg></g></svg></g></svg></g></svg></g><defs></defs></svg><rect width="308.53425885773026" height="280" fill="none" stroke="none" visibility="hidden"></rect></g></svg></g></svg>